<svg width="72" height="73" viewBox="0 0 72 73" fill="none" xmlns="http://www.w3.org/2000/svg">
<path d="M72 0.931641H0V72.9316H72V0.931641Z" fill="#FF7900"/>
<path d="M28.6249 65.8215C27.578 66.5219 26.3457 66.8935 25.0861 66.8889C24.6655 66.9193 24.2433 66.8599 23.8474 66.7149C23.4515 66.5698 23.0909 66.3422 22.7895 66.0473C22.4881 65.7524 22.2528 65.3968 22.0992 65.0042C21.9455 64.6115 21.8771 64.1906 21.8983 63.7695C21.8983 61.3656 24.1087 60.0921 28.6627 59.5773V58.9815C28.6627 58.2003 28.0696 57.7485 26.9752 57.7485C26.4731 57.7344 25.9747 57.8387 25.5204 58.0529C25.066 58.2671 24.6685 58.5852 24.3598 58.9815L22.4545 57.8925C22.9808 57.1874 23.6759 56.6259 24.4759 56.2596C25.2759 55.8933 26.1552 55.734 27.0328 55.7964C29.8309 55.7964 31.3879 57.0078 31.3879 58.9815V66.7665H28.8841L28.6249 65.8215ZM24.6649 63.5625C24.6511 63.7391 24.6737 63.9166 24.7312 64.0842C24.7887 64.2517 24.8799 64.4057 24.9993 64.5366C25.1186 64.6675 25.2635 64.7725 25.4251 64.8452C25.5866 64.9179 25.7613 64.9568 25.9384 64.9593C26.9222 64.9225 27.8566 64.5186 28.5574 63.8271V61.2846C25.9168 61.6194 24.6649 62.2971 24.6649 63.5688V63.5625Z" fill="white"/>
<path d="M32.8789 56.3123L35.2189 55.9883L35.4745 57.2618C36.5011 56.3642 37.8022 55.8422 39.1645 55.7813C41.3749 55.7812 42.5125 56.9513 42.5125 59.276V66.7532H39.6829V59.7683C39.6829 58.4534 39.34 57.863 38.3221 57.863C37.3268 57.9316 36.389 58.3546 35.6788 59.0555V66.7586H32.8789V56.3123Z" fill="white"/>
<path d="M60.1052 66.9575C56.9399 66.9575 55.0508 64.9244 55.0508 61.391C55.0508 57.8576 56.9561 55.7812 60.0593 55.7812C63.1625 55.7812 64.9994 57.7549 64.9994 61.2469C64.9994 61.4324 64.9778 61.6169 64.9778 61.787H57.8228C57.8444 63.8201 58.6886 64.847 60.3518 64.847C60.8423 64.8577 61.3267 64.7372 61.7551 64.498C62.1834 64.2587 62.54 63.9094 62.7881 63.4862L64.8581 64.6346C63.9518 66.1574 62.3129 66.9575 60.1052 66.9575ZM62.2229 59.9725C62.2582 59.6749 62.2276 59.3731 62.1333 59.0886C62.039 58.8041 61.8833 58.5438 61.6772 58.3262C61.4711 58.1086 61.2196 57.939 60.9406 57.8294C60.6617 57.7198 60.362 57.6728 60.0629 57.692C58.7894 57.692 57.9929 58.5082 57.8849 59.9725H62.2229Z" fill="white"/>
<path d="M9.33344 67.0753C6.53804 67.0753 4.02344 65.2951 4.02344 61.4053C4.02344 57.5155 6.54344 55.7461 9.33344 55.7461C12.1234 55.7461 14.6434 57.529 14.6434 61.4161C14.6434 65.3032 12.1261 67.0753 9.33344 67.0753ZM9.33344 58.1311C7.22384 58.1311 6.83234 60.0364 6.83234 61.3972C6.83234 62.758 7.22474 64.6768 9.33344 64.6768C11.4421 64.6768 11.8345 62.7715 11.8345 61.3972C11.8345 60.0229 11.4421 58.1311 9.33344 58.1311Z" fill="white"/>
<path d="M15.5859 56.0209H18.2724V57.2809C18.638 56.8444 19.0892 56.4875 19.5982 56.2324C20.1072 55.9773 20.6632 55.8293 21.2316 55.7977C21.3534 55.7945 21.4753 55.8008 21.5961 55.8166V58.468H21.4602C20.2299 58.468 18.8853 58.6588 18.4659 59.6137V66.7561H15.5859V56.0209Z" fill="white"/>
<path d="M48.6843 64.4603C50.829 64.4441 51.009 62.2634 51.009 60.8378C51.009 59.1611 50.1927 57.7949 48.669 57.7949C47.6538 57.7949 46.5216 58.5356 46.5216 60.9548C46.5135 62.2823 46.6062 64.4693 48.6843 64.4603ZM53.7243 55.9895V66.1595C53.7243 67.9595 53.5884 70.9097 48.4683 70.9421C46.3587 70.9421 44.4021 70.1123 44.0097 68.2664L46.7997 67.8164C46.9167 68.3447 47.238 68.8721 48.8193 68.8721C50.2863 68.8721 50.9973 68.1701 50.9973 66.4907V65.2415L50.9595 65.2037C50.7079 65.7128 50.3086 66.1342 49.8138 66.4129C49.3189 66.6917 48.7516 66.8147 48.1857 66.7661C45.6846 66.7661 43.7109 65.0291 43.7109 61.3985C43.7109 57.8084 45.744 55.7996 48.0309 55.7969C50.1729 55.7969 50.9676 56.7689 51.1503 57.2828H51.1143L51.3456 55.9976L53.7243 55.9895Z" fill="white"/>
<path d="M65.2112 53.4578H64.1007V56.534H63.513V53.4578H62.4023V52.9844H65.2112V53.4578ZM69.839 56.534H69.254V53.5694H69.2352L68.0733 56.534H67.7034L66.5415 53.5694H66.5253V56.534H65.9402V52.9952H66.8402L67.8995 55.6898L68.9417 52.9952H69.8372L69.839 56.534Z" fill="white"/>
</svg>
